<?xml version="1.0" encoding="iso-8859-1"?>
<!-- Uploaded to: SVG Repo, www.svgrepo.com, Generator: SVG Repo Mixer Tools -->
<svg height="800px" width="800px" version="1.1" id="Layer_1" xmlns="http://www.w3.org/2000/svg" xmlns:xlink="http://www.w3.org/1999/xlink" 
	 viewBox="0 0 512 512" xml:space="preserve">
<circle style="fill:#E4E7ED;" cx="256" cy="256" r="256"/>
<path style="fill:#FF7069;" d="M81.264,110.964h263.653c9.657,0,17.674,4.373,17.674,9.839v98.391c0,5.466-8.017,9.839-17.674,9.839
	h-209.72l-71.425,40.45l16.763-40.45c-9.293-0.182-16.763-4.555-16.763-9.839v-98.391c0-5.466,8.017-9.839,17.674-9.839H81.264z"/>
<path style="fill:#83CF8F;" d="M419.257,252.356H155.604c-9.657,0-17.674,4.373-17.674,9.839v98.391
	c0,5.466,8.017,9.839,17.674,9.839h209.72l71.425,40.45l-16.763-40.45c9.293-0.182,16.763-4.555,16.763-9.839v-98.391
	c0-5.466-8.017-9.839-17.674-9.839H419.257z"/>
<g>
	<path style="fill:#FFFFFF;" d="M210.995,314.306h12.026v29.153h10.932v-67.781h-10.932v29.153h-12.026v-29.153h-10.75v67.781h10.75
		V314.306z M252.356,285.153h18.403v-9.657h-29.153v67.781h29.153v-9.657h-18.403v-19.861h14.576v-9.657h-14.576V285.153z
		 M277.318,343.277h28.242v-9.657h-17.492v-58.124h-10.75V343.277z M310.115,343.277h28.242v-9.657h-17.492v-58.124h-10.75V343.277z
		 M352.752,290.984c0-4.92,2.186-6.742,5.466-6.742c3.462,0,5.466,1.822,5.466,6.742v36.623c0,4.92-2.186,6.742-5.466,6.742
		c-3.462,0-5.466-1.822-5.466-6.742V290.984z M342.001,326.878c0,10.932,5.648,17.127,16.216,17.127
		c10.386,0,16.216-6.195,16.216-17.127V291.53c0-10.932-5.648-17.127-16.216-17.127c-10.386,0-16.216,6.195-16.216,17.127V326.878z"
		/>
	<path style="fill:#FFFFFF;" d="M240.695,182.753l-2.551-36.806v-15.305h10.568v15.305l-2.369,36.806h-5.466H240.695z
		 M188.401,169.634h12.026v29.153h10.932v-67.781h-10.932v29.153h-12.026v-29.153h-10.75v67.781h10.75V169.634z M219.194,198.787
		h10.75v-67.781h-10.75V198.787z M238.508,200.063v-9.657h9.839v9.657H238.508z"/>
</g>
</svg>